<?xml version="1.0" encoding="UTF-8"?><svg id="Layer_2" xmlns="http://www.w3.org/2000/svg" viewBox="0 0 234.6 46.13"><defs><style>.cls-1{fill:#fff;}</style></defs><g id="Layer_1-2"><path class="cls-1" d="M81.02,42.75l1.96.98c-.89,1.33-2.7,2.4-5.15,2.4-3.53,0-5.83-1.87-5.83-4.99s2.3-4.99,5.92-4.99c2.36,0,4.17,1.09,5.03,2.39l-1.97.98c-.67-1.05-1.69-1.52-3.09-1.52-2.23,0-3.71,1.07-3.71,3.14s1.48,3.14,3.71,3.14c1.4,0,2.43-.46,3.13-1.53"/><polygon class="cls-1" points="95.33 36.44 95.33 40.13 88.93 40.13 88.93 36.44 86.78 36.44 86.78 45.84 88.93 45.84 88.93 42.01 95.33 42.01 95.33 45.84 97.48 45.84 97.48 36.44 95.33 36.44"/><path class="cls-1" d="M107.09,38.28l1.94,3.83h-3.89l1.95-3.83ZM105.93,36.44l-4.98,9.4h2.29l1.01-1.99h5.68l1.01,1.99h2.32l-4.98-9.4h-2.35Z"/><polygon class="cls-1" points="127 36.44 123.03 41.41 119.06 36.44 116.72 36.44 116.72 45.84 118.8 45.84 118.8 39.3 122.92 44.34 123.03 44.34 127.15 39.3 127.15 45.84 129.3 45.84 129.3 36.44 127 36.44"/><path class="cls-1" d="M142.28,39.64c0-1.07-.81-1.39-2.01-1.39h-4.11v2.79h4.11c1.21,0,2.01-.32,2.01-1.4M144.47,39.62c0,2.08-1.61,3.18-4.03,3.18h-4.28v3.03h-2.15v-9.4h6.43c2.42,0,4.03,1.13,4.03,3.18"/><rect class="cls-1" x="148.32" y="36.44" width="2.15" height="9.4"/><path class="cls-1" d="M164.33,41.14c0-2.01-1.46-3.14-3.79-3.14s-3.79,1.13-3.79,3.14,1.45,3.14,3.79,3.14,3.79-1.13,3.79-3.14M154.57,41.14c0-3.14,2.31-4.99,5.97-4.99s5.97,1.85,5.97,4.99-2.31,4.99-5.97,4.99-5.97-1.85-5.97-4.99"/><polygon class="cls-1" points="179.26 36.44 179.26 42.88 172.92 36.44 170.64 36.44 170.64 45.84 172.72 45.84 172.72 39.05 179.46 45.84 181.34 45.84 181.34 36.44 179.26 36.44"/><path class="cls-1" d="M196.02,42.99c0,1.85-1.76,3.14-5.09,3.14-2.38,0-4.31-.67-5.75-1.89l1.23-1.46c1.15,1.06,2.64,1.56,4.57,1.56s2.87-.36,2.87-1.14-.96-.99-3.13-1.18c-2.68-.23-5.18-.82-5.18-2.83s2.1-3.03,5-3.03c2.05,0,3.83.51,5.02,1.44l-1.18,1.49c-1.03-.79-2.31-1.11-3.84-1.13-1.28-.01-2.83.22-2.83,1.07,0,.81,1.34.89,3.21,1.03,3,.24,5.1.87,5.1,2.94"/><polygon class="cls-1" points="208.5 36.44 208.5 40.13 202.1 40.13 202.1 36.44 199.95 36.44 199.95 45.84 202.1 45.84 202.1 42.01 208.5 42.01 208.5 45.84 210.65 45.84 210.65 36.44 208.5 36.44"/><rect class="cls-1" x="215.36" y="36.44" width="2.15" height="9.4"/><path class="cls-1" d="M230.49,39.64c0-1.07-.81-1.39-2.01-1.39h-4.11v2.79h4.11c1.21,0,2.01-.32,2.01-1.4M232.68,39.62c0,2.08-1.61,3.18-4.03,3.18h-4.28v3.03h-2.15v-9.4h6.43c2.42,0,4.03,1.13,4.03,3.18"/><path class="cls-1" d="M35.72,23.59c-.65-1.17-1.9-1.88-3.24-1.83L0,22.85v4.63l38.74,1.53-3.03-5.42Z"/><path class="cls-1" d="M0,38.09v4.24h34.21c.85,0,1.64-.46,2.04-1.21l2.42-4.43L0,38.09Z"/><path class="cls-1" d="M0,14.78v6.05l29.42-1.52c1.63-.08,3.17-.79,4.28-1.98l1.88-2.01L0,14.78Z"/><path class="cls-1" d="M32.91.68c-.35-.45-.89-.7-1.45-.68L0,.93v5.45l35.15-2.83-2.24-2.87Z"/><path class="cls-1" d="M36.04,5.63l-6.72.49L0,8.11v4.78l29.53.27,6.47.06c.51-1.08.81-2.4.81-3.83s-.28-2.69-.77-3.75"/><path class="cls-1" d="M39.08,30.79l-31.88-1.09L0,29.45v6.98l7.49-.33,31.48-1.4c.16-.73.25-1.48.25-2.25,0-.56-.05-1.12-.14-1.67"/><path class="cls-1" d="M59.52,21.53c0-1.97-1.65-3.14-4.42-3.14-.99,0-2.12.02-2.95.05,0,2.19.05,4.35.12,6,1.16.09,2.41.17,3.07.17,2.63,0,4.18-1.14,4.18-3.07M58.49,13.96c0-1.88-1.5-2.97-4.06-2.97-.56,0-1.38.05-2.14.09-.1,1.57-.15,3.59-.15,5.62h3c2.09,0,3.34-1.02,3.34-2.74M55.39,26.5c-1.03,0-4.65-.31-5.65-.31.15-1.64.25-4.78.25-7.8v-1.14c0-3.09-.1-6.21-.25-7.83h.03c2.28,0,4.74-.31,5.01-.31,3.66,0,6.1,1.76,6.1,4.4,0,1.62-.94,2.83-2.68,3.52,2.26.36,3.71,1.9,3.71,4.11,0,1.62-.79,2.93-2.26,3.81-1.53.91-4.03,1.55-4.25,1.55"/><path class="cls-1" d="M76.34,26.27c-2.29-.05-4.6-.07-6.44-.07h-3.54c.15-1.64.24-4.78.24-7.8v-1.14c0-3.09-.1-6.21-.24-7.83h2.7c-.15,1.64-.25,4.78-.25,7.8v1.14c0,2.09.05,4.21.12,5.85.71.02,1.5.05,2.14.05,2.14,0,3.69-.14,4.75-.36.1-.02.76.05.84.07l-.32,2.28Z"/><path class="cls-1" d="M89.81,20.1c-.86-2.31-1.92-5.14-3.12-8.3-1.18,3.16-2.19,6.02-3.02,8.33.49.02,1.03.02,1.74.02,2.04,0,3.39-.02,4.4-.05M83,22.03c-.74,2.14-1.25,3.61-1.4,4.16h-2.48c-.03-.09-.03-.86,0-.93,1.3-2.64,3.93-8.99,6.66-15.8l2.21-.09c2.71,6.9,5.31,13.25,6.59,15.89.02.07.02.83,0,.93h-2.58c-.17-.55-.69-2.05-1.47-4.19-.71-.05-1.35-.05-2.36-.05-2.58,0-4.06.02-5.16.07"/><path class="cls-1" d="M105.77,26.65c-5.01,0-8.14-3.33-8.14-8.33,0-3.28,1.35-6.09,3.61-7.54,1.75-1.12,4.57-1.83,4.87-1.83,1.5,0,3.49.5,5.01,1.26l-.86,2.24c-.1.02-.47.02-.57,0l-3.32-1.45c-.2-.03-.39-.03-.61-.03-3.44,0-5.68,2.5-5.68,6.73s2.31,6.83,6.22,6.83c1.5,0,3-.38,4.55-1.19l.67,1.67c-2.07,1.12-3.81,1.64-5.75,1.64"/><path class="cls-1" d="M116.19,26.19c.15-1.64.25-4.78.25-7.8v-1.14c0-3.09-.1-6.21-.25-7.83h2.68c-.15,1.64-.25,4.78-.25,7.8v1.1c3.61-4.02,6.1-6.92,7.4-8.9h2.56c.02.09.02.86,0,.93-.76.62-2.07,1.95-6.32,6.47,2.19,3.02,4.84,6.33,6.79,8.44.02.1.02.83,0,.93l-2.73.07c-1.23-2-3.42-5.02-5.6-7.78l-2.07,2.19c.02,2.26.12,4.31.22,5.52h-2.68Z"/><path class="cls-1" d="M151.18,18.11c0-4.23-2.7-7.06-6.74-7.06-.52,0-1.48.05-2.43.12-.07,1.69-.12,3.9-.12,6.07v1.14c0,2.19.05,4.38.12,6.04,1.13.1,2.36.17,3.07.17,3.69,0,6.1-2.48,6.1-6.47M145.13,26.5c-1.03,0-4.7-.31-5.7-.31.15-1.64.25-4.78.25-7.8v-1.14c0-3.09-.1-6.21-.25-7.83,1.57,0,5.56-.31,5.8-.31,5.04,0,8.38,3.4,8.38,8.49,0,3.07-1.23,5.47-3.62,7.02-1.87,1.21-4.62,1.88-4.87,1.88"/><path class="cls-1" d="M169.62,26.27c-2.29-.05-4.99-.07-6.81-.07h-3.91c.15-1.64.25-4.78.25-7.8v-1.14c0-3.09-.1-6.21-.25-7.88,1.75.02,3,.05,4.55.05,2.16,0,4.74-.05,5.88-.1l-.29,2.21c-.1.05-.74.1-.84.07-.91-.19-2.85-.33-4.65-.33-.69,0-1.4.03-2.06.05-.07,1.52-.12,3.42-.12,5.33,2.63-.02,4.84-.12,5.78-.21l-.25,2.26c-1.01-.1-3.12-.19-5.53-.21,0,2.09.05,4.19.12,5.8.79.02,1.67.05,2.51.05,2.02,0,4.21-.12,5.09-.31.1-.02.76.05.84.07l-.29,2.16Z"/><path class="cls-1" d="M178.76,26.67c-1.89,0-3.88-.67-5.11-1.62l.93-2.33c1.55,1.28,3.12,1.97,4.82,1.97,1.84,0,2.95-.93,2.95-2.52,0-1.26-.69-2.04-2.41-2.78l-2.48-1.07c-2.31-1-3.42-2.38-3.42-4.43,0-1.52.59-2.74,1.74-3.54,1.21-.83,3.42-1.4,3.69-1.4,1.62,0,3.29.45,4.69,1.19l-.88,2.31c-.1.02-.47.02-.57,0l-3.49-1.62h-.15c-1.82,0-2.88.9-2.88,2.45,0,1.24.71,2.02,2.53,2.81l2.48,1.07c2.26.97,3.3,2.35,3.3,4.4,0,1.57-.59,2.78-1.75,3.57-1.21.83-3.74,1.55-4.01,1.55"/><path class="cls-1" d="M200.55,26.27c-2.29-.05-4.99-.07-6.81-.07h-3.91c.15-1.64.25-4.78.25-7.8v-1.14c0-3.09-.1-6.21-.25-7.88,1.75.02,3,.05,4.55.05,2.16,0,4.74-.05,5.88-.1l-.29,2.21c-.1.05-.74.1-.84.07-.91-.19-2.85-.33-4.65-.33-.69,0-1.4.03-2.06.05-.07,1.52-.12,3.42-.12,5.33,2.63-.02,4.84-.12,5.78-.21l-.25,2.26c-1.01-.1-3.12-.19-5.53-.21,0,2.09.05,4.19.12,5.8.79.02,1.67.05,2.51.05,2.02,0,4.21-.12,5.09-.31.1-.02.76.05.84.07l-.29,2.16Z"/><path class="cls-1" d="M214.81,14.68c0-2.31-1.45-3.69-3.91-3.69-.54,0-1.55.05-2.56.12-.07,1.69-.12,3.93-.12,6.11v1c.98.07,1.99.12,2.61.12,2.51,0,3.98-1.36,3.98-3.66M213.09,19.58c2.19,2.45,4.28,4.66,5.38,5.68.02.1.02.83,0,.93l-2.63.07c-.83-1.14-2.83-3.5-5.09-6.02-.66,0-1.52-.07-2.53-.14.05,2.47.12,4.78.25,6.09h-2.7c.15-1.64.25-4.78.25-7.8v-1.14c0-3.09-.1-6.21-.25-7.83,1.62,0,5.7-.31,5.95-.31,3.34,0,5.58,2.05,5.58,5.12,0,1.93-.86,3.47-2.53,4.52-.49.31-1.11.6-1.67.83"/><path class="cls-1" d="M226.39,26.19c.15-1.64.25-4.78.25-7.8v-1.14c0-2.16-.05-4.33-.12-5.99-1.94.02-3.93.17-4.84.33-.1.02-.74-.02-.84-.07l.1-2.19c1.13.05,3.83.1,6.42.1h.83c2.58,0,5.29-.05,6.42-.1l-.25,2.21c-.1.05-.74.09-.83.07-.81-.17-2.65-.31-4.55-.36-.07,1.69-.12,3.85-.12,5.97v1.14c0,3.09.1,6.21.24,7.83h-2.7Z"/></g></svg>