<?xml version="1.0" encoding="utf-8"?>
<!-- Generator: Adobe Illustrator 25.4.8, SVG Export Plug-In . SVG Version: 6.00 Build 0)  -->
<svg version="1.1" id="Layer_1" xmlns="http://www.w3.org/2000/svg" xmlns:xlink="http://www.w3.org/1999/xlink" x="0px" y="0px"
	 viewBox="0 0 458.8 320.4" style="enable-background:new 0 0 458.8 320.4;" xml:space="preserve">
<style type="text/css">
	.st0{display:none;}
	.st1{display:inline;}
	.st2{fill:#EE3524;}
	.st3{fill-rule:evenodd;clip-rule:evenodd;fill:#005288;}
	.st4{fill-rule:evenodd;clip-rule:evenodd;fill:#FFC425;}
	.st5{fill-rule:evenodd;clip-rule:evenodd;fill:#54B948;}
	.st6{fill:#005288;}
	.st7{fill-rule:evenodd;clip-rule:evenodd;fill:#003764;}
	.st8{fill:#003764;}
	.st9{display:inline;fill:#003764;}
</style>
<g class="st0">
	<g class="st1">
		<g>
			<path class="st2" d="M141.2,163c-11.5,62.4-60.9,115-75.1,130.4l0,0c28.7-23.4,78.1-72.6,88.3-140.6c5.3-35.5,4.8-62.4-2.4-87
				l-14.2,2.8C146.6,93.8,148.4,124.3,141.2,163z"/>
			<g>
				<path class="st3" d="M253.8,48.4c0,0-4.5-5.9-10.2-4.7L77.4,79.4c-0.4-0.5-1-0.9-2.2-0.6c-2.9,0.6-28.4,6.2-30.2,6.6
					c-1.8,0.4-0.2,6,1.2,5.7c1.4-0.3,27.8-6.1,30.2-6.6c1.4-0.3,1.7-1.1,1.8-1.8l155.5-33.2c4.3-1,7.1-0.1,10.7,4.3
					c2.2,2.8,5.1,8.5,5.1,8.5s0.7,1.6,2.2,1l8.2-2.8c1.6-0.6,0.9-1.8,0.9-1.8S257.4,52.8,253.8,48.4z"/>
			</g>
			<path class="st3" d="M150,199.5c0,0,5.7,56.6-8.5,99.2c0,0,6.3-40.6-3.2-77L150,199.5z"/>
			<path class="st4" d="M90.4,113.8c25.5,19.5,15.1,38.4,9.4,48.9c-6.6,12.2-7.6,18.9-5.2,29.3c1.2,4.9,1.2,10.3-0.2,15.3
				c-2.5,9-7.9,16.6-7.9,16.6l0.2-0.2c0,0,19.4-13.4,16.5-31.4c-1.7-10.5,2.4-17,9-29.2C117.9,152.5,123.8,118.6,90.4,113.8
				L90.4,113.8z"/>
			<path class="st5" d="M38.5,92.8c-0.4-1.2-0.9-2.1-1.4-3.8c-0.9-3.7-0.5-5.8,2.2-6.4c1-0.2,3.1-0.8,4.8-1.1c2.5-0.5,4.4,0,5.2,3.5
				c2.5,9.9-2,6.7,3.4,14.9c5.4,8.2,11.8,17.9,11.8,17.9s5.3-4.5,7-10.6c1.5-5.5,4.5-19.2,24.9-18.7c0,0-9.1,6.8-13.6,21.8
				c-5.6,18.7-22.9,23.9-22.9,23.9s-12.9-25.3-15.3-31.6C42.4,96.3,39.6,96.3,38.5,92.8z"/>
			<g>
				<path class="st5" d="M84,55.1c1.6-1.7,4.2-2.1,5.4-2.5c-3.3-3.2-12.6-4.9-17.9,5.5c-2.2,4.3-9.5,6.6-13.3,0.3
					c-0.6,2.5,1.7,13.9,13.7,11.5C80.4,68.1,79,59.4,84,55.1z"/>
				<path class="st3" d="M122.1,49c2.2,1.9,0.8,3.2,0,4.8c-4.4,8.8,9.7,7.6,9.7,7.6l-2.7-2.7c-0.8-0.9-1.3-1.5-1.3-2.3
					c0-0.5,0.2-1,0.6-1.6c1.1-1.9,1.6-3.4,1.7-4.7c0.1-2.4-1-3.4-2.7-4.7l-0.2-0.2c10.8-4,11.4-14.5,11.4-14.5l-19-2.6
					c-5.8-7-12.6-8.8-22.9-4.6C83.1,30,83.3,43.5,83.3,43.5s2.8-5.5,7.5-9.6c6.6-5.7,16.6-10.1,25.2,0.3c0,0,12.4,1,14,1.3
					c0,0-1.2,3.2-3.3,4.3c-5.9,3.1-11.1-0.1-14.9,0.5c-8.7,1.2-12.3,7.9-12.3,7.9S112.6,41.8,122.1,49z"/>
			</g>
		</g>
		<g>
			<path class="st6" d="M193,118.8c0,1.3,0,47.9,0,49.3c1.3,0,41.2,0,42.5,0c0-1.1,0-6.4,0-7.4c-1.3,0-35,0-35,0s0-40.5,0-41.8
				C199.4,118.8,194.1,118.8,193,118.8z"/>
			<path class="st6" d="M320.2,118.8c-7.3,0-13.3,2.2-18,6.6c-4.6,4.4-7,10.3-7,17.5c0,7.2,2.4,13.3,7.1,18.1
				c4.7,4.7,10.7,7.1,17.9,7.1c0,0,22,0,23.3,0c0-1.3,0-25.3,0-26.6c-1.3,0-26.6,0-27.9,0c0,1.1,0,6.3,0,7.4c1.3,0,20.4,0,20.4,0
				v11.7h-15.8c-5,0-9.2-1.6-12.5-4.7c-3.3-3.1-4.9-7.3-4.9-12.3c0-5.1,1.7-9.3,4.9-12.5c3.3-3.2,7.5-4.9,12.5-4.9
				c0,0,22.1,0,23.4,0c0-1.1,0-6.4,0-7.4C342.3,118.8,320.2,118.8,320.2,118.8z"/>
			<path class="st6" d="M242.1,118.8c0,1.3,0,47.9,0,49.3c1.1,0,6.4,0,7.5,0c0-1.3,0-14.3,0-14.3h20c5.5,0,10.1-1.5,13.8-4.6
				c3.9-3.3,5.9-7.6,5.9-12.9c0-5.3-2-9.7-5.9-12.9c-3.6-3.1-8.3-4.7-13.8-4.7C269.6,118.8,243.5,118.8,242.1,118.8z M249.6,126.3
				H271c3.1,0,5.7,0.9,7.8,2.7c2.1,1.8,3.2,4.3,3.2,7.3s-1.1,5.5-3.2,7.4c-2.1,1.8-4.8,2.8-7.8,2.8h-21.4L249.6,126.3L249.6,126.3z"
				/>
			<path class="st6" d="M373,122.7c0,0-0.2,0.4-0.3,0.5c0,0-21.6,42.9-22.6,44.9c1.7,0,7.7,0,8.4,0c0.4-0.7,6.7-13.4,6.7-13.4h25.1
				c0,0,6.3,12.6,6.6,13.3c0.7,0,6.5,0.1,8.2,0.1c-1-1.9-22-44.9-22-44.9c0,0-0.3-0.7-0.3-0.7c-0.8-1.6-2-3.9-4.9-3.9
				C375.2,118.6,373.8,121.3,373,122.7z M378,129.6l8.8,17.7h-17.7L378,129.6z"/>
		</g>
	</g>
	<g class="st1">
		<path class="st6" d="M414.4,164.8c-0.7,0.7-1.6,1.1-2.6,1.1s-1.9-0.4-2.6-1.1c-0.7-0.7-1.1-1.6-1.1-2.6c0-1,0.4-1.9,1.1-2.6
			c0.7-0.7,1.6-1.1,2.6-1.1c1,0,1.9,0.4,2.6,1.1s1.1,1.6,1.1,2.6C415.5,163.2,415.1,164.1,414.4,164.8z M409.6,159.9
			c-0.6,0.6-0.9,1.4-0.9,2.2c0,0.9,0.3,1.6,0.9,2.2c0.6,0.6,1.4,0.9,2.2,0.9c0.9,0,1.6-0.3,2.2-0.9c0.6-0.6,0.9-1.4,0.9-2.2
			c0-0.9-0.3-1.6-0.9-2.2c-0.6-0.6-1.4-0.9-2.2-0.9C411,159,410.2,159.3,409.6,159.9z M411.8,160.2c0.5,0,0.9,0.1,1.1,0.1
			c0.4,0.2,0.6,0.5,0.6,1c0,0.4-0.1,0.6-0.4,0.8c-0.1,0.1-0.3,0.1-0.6,0.2c0.3,0.1,0.5,0.2,0.7,0.4c0.1,0.2,0.2,0.4,0.2,0.6v0.3
			c0,0.1,0,0.2,0,0.3s0,0.2,0,0.2l0,0.1h-0.7c0,0,0,0,0,0s0,0,0,0l0-0.1v-0.3c0-0.5-0.1-0.8-0.4-0.9c-0.1-0.1-0.4-0.1-0.8-0.1h-0.6
			v1.6h-0.7v-4L411.8,160.2L411.8,160.2z M412.5,160.8c-0.2-0.1-0.5-0.1-0.9-0.1h-0.6v1.4h0.6c0.3,0,0.5,0,0.7-0.1
			c0.3-0.1,0.4-0.3,0.4-0.6C412.8,161.1,412.7,160.9,412.5,160.8z"/>
	</g>
	<g class="st1">
		<path class="st6" d="M157,287c-0.7,0.7-1.6,1.1-2.6,1.1s-1.9-0.4-2.6-1.1c-0.7-0.7-1.1-1.6-1.1-2.6c0-1,0.4-1.9,1.1-2.6
			s1.6-1.1,2.6-1.1c1,0,1.9,0.4,2.6,1.1c0.7,0.7,1.1,1.6,1.1,2.6C158.1,285.4,157.8,286.2,157,287z M152.2,282.1
			c-0.6,0.6-0.9,1.4-0.9,2.2c0,0.9,0.3,1.6,0.9,2.2s1.4,0.9,2.2,0.9c0.9,0,1.6-0.3,2.2-0.9s0.9-1.4,0.9-2.2c0-0.9-0.3-1.6-0.9-2.2
			c-0.6-0.6-1.4-0.9-2.2-0.9C153.6,281.2,152.8,281.5,152.2,282.1z M154.4,282.4c0.5,0,0.9,0,1.1,0.1c0.4,0.2,0.6,0.5,0.6,1
			c0,0.4-0.1,0.6-0.4,0.8c-0.1,0.1-0.3,0.1-0.6,0.2c0.3,0,0.6,0.2,0.7,0.4c0.1,0.2,0.2,0.4,0.2,0.6v0.3c0,0.1,0,0.2,0,0.3
			s0,0.2,0,0.2l0,0h-0.7c0,0,0,0,0,0s0,0,0,0l0-0.1v-0.3c0-0.5-0.1-0.8-0.4-0.9c-0.1-0.1-0.4-0.1-0.8-0.1h-0.6v1.6H153v-4
			L154.4,282.4L154.4,282.4z M155.1,283c-0.2-0.1-0.5-0.1-0.9-0.1h-0.6v1.4h0.6c0.3,0,0.5,0,0.7-0.1c0.3-0.1,0.4-0.3,0.4-0.6
			C155.4,283.3,155.3,283.1,155.1,283z"/>
	</g>
</g>
<g>
	<g>
		<path class="st7" d="M151.1,199.5c0,0,5.7,56.6-8.5,99.2c0,0,6.3-40.6-3.2-77L151.1,199.5z"/>
		<path class="st8" d="M142.3,163c-11.5,62.4-60.9,115-75.1,130.4l0,0c28.7-23.4,78.1-72.6,88.3-140.6c5.3-35.5,4.8-62.4-2.4-87
			l-14.2,2.8C147.6,93.8,149.5,124.3,142.3,163z"/>
		<path class="st7" d="M91.4,113.8c25.5,19.5,15.1,38.4,9.4,48.9c-6.6,12.3-7.6,19-5.2,29.3c1.2,4.9,1.2,10.3-0.2,15.3
			c-2.5,9-8,16.6-8,16.6l0.2-0.2c0,0,19.4-13.4,16.5-31.4c-1.7-10.5,2.4-17,9-29.2C118.9,152.5,124.9,118.6,91.4,113.8L91.4,113.8z"
			/>
		<path class="st7" d="M39.6,92.8c-0.4-1.2-0.9-2.1-1.4-3.8c-0.9-3.7-0.5-5.8,2.2-6.4c1-0.2,3.1-0.8,4.9-1.1c2.5-0.5,4.4,0,5.2,3.5
			c2.4,9.9-2,6.7,3.4,14.9c5.4,8.2,11.8,17.9,11.8,17.9s5.3-4.5,7-10.6c1.5-5.5,4.5-19.2,24.9-18.7c0,0-9.1,6.7-13.6,21.8
			c-5.6,18.7-22.9,24-22.9,24s-12.9-25.3-15.3-31.6C43.5,96.3,40.7,96.3,39.6,92.8z"/>
		<g>
			<path class="st7" d="M254.9,48.4c0,0-4.5-5.9-10.2-4.7L78.4,79.4c-0.4-0.5-1-0.9-2.2-0.6C73.3,79.4,47.8,85,46,85.4
				c-1.8,0.4-0.2,6,1.2,5.7c1.4-0.3,27.8-6.1,30.2-6.6c1.4-0.3,1.7-1,1.8-1.8l155.5-33.2c4.3-1,7.1-0.1,10.7,4.3
				c2.2,2.7,5.1,8.5,5.1,8.5s0.7,1.6,2.2,1l8.2-2.8c1.6-0.6,0.9-1.8,0.9-1.8S258.4,52.8,254.9,48.4z"/>
		</g>
		<g>
			<path class="st7" d="M85.1,55.1c1.6-1.7,4.2-2.1,5.4-2.6c-3.3-3.2-12.6-4.9-17.9,5.5c-2.3,4.3-9.5,6.6-13.3,0.3
				c-0.6,2.5,1.7,13.9,13.7,11.5C81.5,68.1,80.1,59.4,85.1,55.1z"/>
			<path class="st7" d="M123.1,49c2.2,1.9,0.8,3.2,0,4.8c-4.4,8.8,9.7,7.6,9.7,7.6l-2.7-2.7c-0.8-0.9-1.3-1.5-1.3-2.3
				c0-0.4,0.2-1,0.6-1.6c1.1-1.9,1.6-3.4,1.7-4.7c0.1-2.4-1-3.4-2.7-4.7l-0.2-0.2c10.8-4,11.4-14.5,11.4-14.5l-19-2.6
				c-5.8-7-12.6-8.8-22.9-4.6C84.1,30,84.3,43.5,84.3,43.5s2.8-5.5,7.5-9.6c6.6-5.7,16.6-10.1,25.2,0.3c0,0,12.4,1,14,1.3
				c0,0-1.2,3.2-3.3,4.3c-5.9,3.1-11.1-0.1-14.9,0.5c-8.7,1.2-12.3,7.9-12.3,7.9S113.6,41.8,123.1,49z"/>
		</g>
	</g>
	<g>
		<path class="st8" d="M194.1,118.8c0,1.3,0,47.9,0,49.3c1.3,0,41.2,0,42.5,0c0-1.1,0-6.4,0-7.4c-1.3,0-35,0-35,0s0-40.5,0-41.8
			C200.5,118.8,195.2,118.8,194.1,118.8z"/>
		<path class="st8" d="M321.2,118.8c-7.3,0-13.3,2.2-18,6.6c-4.6,4.4-7,10.3-7,17.4c0,7.2,2.4,13.3,7.1,18.1
			c4.7,4.7,10.7,7.1,17.9,7.1c0,0,22,0,23.3,0c0-1.3,0-25.3,0-26.6c-1.3,0-26.6,0-27.9,0c0,1.1,0,6.3,0,7.4c1.3,0,20.4,0,20.4,0
			v11.7h-15.8c-5,0-9.2-1.6-12.5-4.7c-3.3-3.1-4.9-7.3-4.9-12.3c0-5.1,1.7-9.3,4.9-12.5c3.3-3.2,7.5-4.9,12.5-4.9c0,0,22.1,0,23.4,0
			c0-1.1,0-6.4,0-7.4C343.3,118.8,321.2,118.8,321.2,118.8z"/>
		<path class="st8" d="M243.2,118.8c0,1.3,0,47.9,0,49.3c1.1,0,6.4,0,7.5,0c0-1.3,0-14.3,0-14.3h20c5.5,0,10.1-1.5,13.8-4.6
			c3.9-3.3,5.9-7.6,5.9-12.9c0-5.3-2-9.7-5.8-12.9c-3.6-3.1-8.3-4.7-13.8-4.7C270.6,118.8,244.5,118.8,243.2,118.8z M250.7,126.3
			h21.4c3.1,0,5.7,0.9,7.8,2.7c2.1,1.8,3.2,4.3,3.2,7.3c0,3.1-1.1,5.5-3.2,7.4c-2.1,1.8-4.7,2.8-7.8,2.8h-21.4V126.3z"/>
		<path class="st8" d="M374.1,122.7c0,0-0.2,0.4-0.3,0.5c0,0-21.6,42.9-22.6,44.9c1.7,0,7.7,0,8.4,0c0.4-0.7,6.7-13.4,6.7-13.4h25.1
			c0,0,6.3,12.6,6.6,13.3c0.7,0,6.5,0,8.2,0.1c-0.9-1.9-22-44.9-22-44.9c0,0-0.3-0.7-0.3-0.7c-0.8-1.6-2-3.9-4.9-3.9
			C376.3,118.6,374.9,121.3,374.1,122.7z M379,129.6l8.8,17.7h-17.7L379,129.6z"/>
	</g>
</g>
<g class="st0">
	<path class="st9" d="M413.9,165.8c-0.7,0.7-1.5,1.1-2.5,1.1s-1.8-0.4-2.5-1.1c-0.7-0.7-1-1.5-1-2.5c0-1,0.4-1.8,1-2.5
		c0.7-0.7,1.5-1,2.5-1c1,0,1.8,0.3,2.5,1c0.7,0.7,1,1.5,1,2.5C415,164.3,414.6,165.1,413.9,165.8z M409.2,161.1
		c-0.6,0.6-0.9,1.3-0.9,2.2c0,0.9,0.3,1.6,0.9,2.2c0.6,0.6,1.3,0.9,2.2,0.9c0.9,0,1.6-0.3,2.2-0.9c0.6-0.6,0.9-1.3,0.9-2.2
		c0-0.9-0.3-1.6-0.9-2.2c-0.6-0.6-1.3-0.9-2.2-0.9C410.6,160.2,409.8,160.5,409.2,161.1z M411.3,161.3c0.5,0,0.8,0,1.1,0.1
		c0.4,0.2,0.6,0.5,0.6,1c0,0.3-0.1,0.6-0.4,0.8c-0.1,0.1-0.3,0.2-0.6,0.2c0.3,0,0.5,0.2,0.7,0.4c0.1,0.2,0.2,0.4,0.2,0.6v0.3
		c0,0.1,0,0.2,0,0.3c0,0.1,0,0.2,0,0.2l0,0h-0.6c0,0,0,0,0,0c0,0,0,0,0,0l0-0.1v-0.3c0-0.5-0.1-0.8-0.4-0.9
		c-0.1-0.1-0.4-0.1-0.8-0.1h-0.5v1.5H410v-3.9H411.3z M412.1,161.9c-0.2-0.1-0.5-0.1-0.8-0.1h-0.6v1.4h0.6c0.3,0,0.5,0,0.7-0.1
		c0.3-0.1,0.4-0.3,0.4-0.6C412.3,162.2,412.3,162,412.1,161.9z"/>
</g>
<g>
	<path class="st8" d="M162.1,285.4c-0.7,0.7-1.5,1.1-2.5,1.1c-1,0-1.8-0.4-2.5-1.1c-0.7-0.7-1-1.5-1-2.5c0-1,0.4-1.8,1-2.5
		c0.7-0.7,1.5-1,2.5-1c1,0,1.8,0.3,2.5,1c0.7,0.7,1,1.5,1,2.5C163.1,283.8,162.8,284.7,162.1,285.4z M157.3,280.7
		c-0.6,0.6-0.9,1.3-0.9,2.2c0,0.9,0.3,1.6,0.9,2.2c0.6,0.6,1.3,0.9,2.2,0.9c0.9,0,1.6-0.3,2.2-0.9c0.6-0.6,0.9-1.3,0.9-2.2
		c0-0.9-0.3-1.6-0.9-2.2c-0.6-0.6-1.3-0.9-2.2-0.9C158.7,279.8,157.9,280.1,157.3,280.7z M159.5,280.9c0.5,0,0.8,0,1.1,0.1
		c0.4,0.2,0.6,0.5,0.6,1c0,0.3-0.1,0.6-0.4,0.8c-0.1,0.1-0.3,0.2-0.6,0.2c0.3,0,0.5,0.2,0.7,0.4c0.1,0.2,0.2,0.4,0.2,0.6v0.3
		c0,0.1,0,0.2,0,0.3c0,0.1,0,0.2,0,0.2l0,0h-0.6c0,0,0,0,0,0c0,0,0,0,0,0l0-0.1v-0.3c0-0.5-0.1-0.8-0.4-0.9
		c-0.1-0.1-0.4-0.1-0.8-0.1h-0.5v1.5h-0.7v-3.9H159.5z M160.2,281.5c-0.2-0.1-0.5-0.1-0.8-0.1h-0.6v1.4h0.6c0.3,0,0.5,0,0.7-0.1
		c0.3-0.1,0.4-0.3,0.4-0.6C160.5,281.8,160.4,281.6,160.2,281.5z"/>
</g>
</svg>
