<?xml version="1.0" encoding="utf-8"?>
<!-- Generator: Adobe Illustrator 27.2.0, SVG Export Plug-In . SVG Version: 6.00 Build 0)  -->
<svg version="1.1" id="Layer_1" xmlns="http://www.w3.org/2000/svg" xmlns:xlink="http://www.w3.org/1999/xlink" x="0px" y="0px"
	 viewBox="0 0 2400 775" style="enable-background:new 0 0 2400 775;" xml:space="preserve">
<style type="text/css">
	.st0{fill:#4F2D7F;}
	.st1{fill:url(#SVGID_1_);}
	.st2{fill:url(#SVGID_00000108286164315993377950000011496640810527232147_);}
	.st3{fill:url(#SVGID_00000044886841921009941380000006360028203091306424_);}
	.st4{fill:url(#SVGID_00000083800815308706029900000017513360500162621361_);}
</style>
<g>
	<g>
		<g>
			<path class="st0" d="M444.61,735.3V576.61h18.82v190.87h-20.72l-95.98-158.69v158.69h-18.54V576.61h20.72L444.61,735.3z"/>
		</g>
		<g>
			<path class="st0" d="M623.48,767.47h-13.91l-67.62-190.87h19.63l55.08,160.87l54.8-160.87h19.63L623.48,767.47z"/>
		</g>
		<g>
			<path class="st0" d="M769.62,576.61h19.09v190.87h-19.09V576.61z"/>
		</g>
		<g>
			<path class="st0" d="M920.95,593.52h-51.26v-16.91H991.3v16.91h-51.8v173.96h-18.54V593.52z"/>
		</g>
		<g>
			<path class="st0" d="M1160.89,767.47l-11.73-34.08h-82.89l-11.73,34.08h-19.63l65.71-190.87h14.18l65.71,190.87H1160.89z
				 M1107.72,606.33L1072,716.49h71.44L1107.72,606.33z"/>
		</g>
		<g>
			<path class="st0" d="M1275.41,593.52h-51.26v-16.91h121.61v16.91h-51.8v173.96h-18.54V593.52z"/>
		</g>
		<g>
			<path class="st0" d="M1426.74,576.61h19.09v190.87h-19.09V576.61z"/>
		</g>
		<g>
			<path class="st0" d="M1534.71,672.04c0-51.53,37.08-99.52,98.16-99.52s98.15,47.99,98.15,99.52s-37.08,99.52-98.15,99.52
				S1534.71,723.58,1534.71,672.04z M1711.67,672.04c0-42.81-29.99-82.62-78.8-82.62c-49.08,0-78.8,39.81-78.8,82.62
				s29.72,82.62,78.8,82.62C1681.68,754.66,1711.67,714.85,1711.67,672.04z"/>
		</g>
		<g>
			<path class="st0" d="M1936.34,735.3V576.61h18.82v190.87h-20.72l-95.98-158.69v158.69h-18.54V576.61h20.72L1936.34,735.3z"/>
		</g>
		<g>
			<path class="st0" d="M2159.93,767.47l-11.73-34.08h-82.89l-11.73,34.08h-19.63l65.71-190.87h14.18l65.71,190.87H2159.93z
				 M2106.76,606.33l-35.72,110.16h71.44L2106.76,606.33z"/>
		</g>
		<g>
			<path class="st0" d="M2342.61,767.47h-16.9c-37.14,0-67.35-30.21-67.35-67.34v1.8V576.61h18.54v120.65l0,3.54
				c0,26.61,21.65,48.26,48.27,48.26h17.44V767.47z"/>
		</g>
		<g>
			<path class="st0" d="M191.13,576.61l-8.52,17.05c15.81,7.94,26.7,24.26,26.7,43.12l0,17.53v113.16h19.09V654.31v-17.53
				C228.39,610.46,213.19,587.68,191.13,576.61z"/>
		</g>
	</g>
	<g>
		<g>
			<path d="M931.09,319.17c-21.97,0-30.22-9.62-30.22-25.07c0-17.86,9.96-27.13,36.06-27.13h34.34v10.3
				C971.27,304.41,954.44,319.17,931.09,319.17z M871.34,296.85c0,21.3,12.36,43.96,50.82,43.96c22.31,0,37.77-8.58,48.42-22.32
				l3.78,18.89h24.03V235.72c0-43.61-26.1-51.15-57-51.15c-23.35,0-53.91,6.86-61.47,41.89h29.53c3.77-13.05,12.71-20.6,31.59-20.6
				c15.46,0,30.22,5.49,30.22,30.21v10.66h-32.62C899.5,246.72,871.34,259.77,871.34,296.85L871.34,296.85z M792.7,337.38h27.82
				v-93.4c0-21.64,13.39-31.61,30.56-31.61c5.83,0,11.68,0.35,17.86,1.39v-27.14c-5.15-1.71-9.96-2.05-14.76-2.05
				c-15.45,0-27.47,9.26-33.65,21.97l-3.43-18.2H792.7V337.38z M1779.15,337.38h27.82v-93.4c0-21.64,13.38-31.61,30.55-31.61
				c5.84,0,11.69,0.35,17.87,1.39v-27.14c-5.17-1.71-9.95-2.05-14.76-2.05c-15.45,0-27.5,9.26-33.66,21.97l-3.43-18.2h-24.4V337.38z
				 M1256.26,212.72v-24.38h-30.54v-42.59l-28.51,4.48v38.11h-21.63v24.38h21.63v94.78c0,21.28,7.9,33.99,39.15,33.99
				c6.88,0,17.16-1.37,23.34-3.09v-21.28c-6.52,1.71-12.7,2.06-17.16,2.06c-13.05,0-16.83-6.18-16.83-19.91v-86.54H1256.26z
				 M2095.42,212.72v-24.38h-30.57v-42.59l-28.47,4.48v38.11h-21.64v24.38h21.64v94.78c0,21.28,7.88,33.99,39.13,33.99
				c6.88,0,17.17-1.37,23.37-3.09v-21.28c-6.52,1.71-12.72,2.06-17.17,2.06c-13.05,0-16.85-6.18-16.85-19.91v-86.54H2095.42z
				 M1680.93,318.15c-26.77,0-43.95-18.55-43.95-55.63c0-35.38,17.87-55.29,44.31-55.29c26.76,0,42.58,19.57,42.58,57.01
				C1723.87,300.28,1707.38,318.15,1680.93,318.15L1680.93,318.15z M2178.52,318.15c-26.78,0-43.95-18.55-43.95-55.63
				c0-35.38,17.85-55.29,44.29-55.29c26.8,0,42.57,19.57,42.57,57.01C2221.43,300.28,2204.96,318.15,2178.52,318.15L2178.52,318.15z
				 M1874.62,337.38h27.14v-85.84c0-24.73,10.63-41.92,36.39-41.92c24.04,0,31.59,10.31,31.59,35.38v92.37h27.81V237.09
				c0-34.34-14.43-52.19-47.04-52.19c-22.31,0-38.8,8.23-48.76,22.32l-3.44-18.89h-23.7V337.38z M1034.45,337.38h27.13v-85.84
				c0-24.73,10.64-41.92,36.4-41.92c24.04,0,31.59,10.31,31.59,35.38v92.37h27.81V237.09c0-34.34-14.42-52.19-47.04-52.19
				c-22.32,0-38.8,8.23-48.76,22.32l-3.43-18.89h-23.7V337.38z M2277.08,337.38h27.12v-85.84c0-24.73,10.65-41.92,36.4-41.92
				c24.03,0,31.61,10.31,31.61,35.38v92.37h27.8V237.09c0-34.34-14.4-52.19-47.04-52.19c-22.32,0-38.82,8.23-48.77,22.32
				l-3.42-18.89h-23.69V337.38z M1446.41,137.17v-24.03h-158.66v24.03h64.91v200.21h29.88V137.17H1446.41z M1460.83,337.38h27.14
				v-85.84c0-24.73,10.62-41.92,36.39-41.92c24.03,0,31.59,10.31,31.59,35.38v92.37h27.82V237.09c0-34.34-14.43-52.19-47.04-52.19
				c-22.32,0-38.81,8.23-48.76,22.32v-94.09h-27.14V337.38z M681.1,248.44h52.88v49.78c-16.14,14.08-40.87,19.56-60.78,19.56
				c-49.79,0-78.29-32.28-78.29-88.94c0-60.09,30.55-93.4,77.61-93.4c28.15,0,49.1,9.96,69.02,28.84l17.51-19.92
				c-17.86-19.57-48.42-33.99-83.44-33.99c-70.4,0-111.95,49.11-111.95,117.79c0,67.3,34.69,114.01,109.88,114.01
				c41.56,0,73.83-18.21,89.63-35.37v-81.4H681.1V248.44z M1683.01,184.56c-49.45,0-75.2,33.99-75.2,78.99
				c0,46.35,25.75,77.26,71.77,77.26c46.03,0,74.51-30.22,74.51-77.96C1754.08,213.76,1727.63,184.56,1683.01,184.56L1683.01,184.56
				z M2180.59,184.56c-49.46,0-75.22,33.99-75.22,78.99c0,46.35,25.76,77.26,71.77,77.26c46.01,0,74.52-30.22,74.52-77.96
				C2251.67,213.76,2225.22,184.56,2180.59,184.56L2180.59,184.56z"/>
		</g>
		<g>
			<g>
				<linearGradient id="SVGID_1_" gradientUnits="userSpaceOnUse" x1="316.4508" y1="163.368" x2="-3.4067" y2="185.7346">
					<stop  offset="0" style="stop-color:#4F2683"/>
					<stop  offset="0.1185" style="stop-color:#4F2683"/>
					<stop  offset="0.1209" style="stop-color:#4F2683"/>
					<stop  offset="0.3094" style="stop-color:#684795"/>
					<stop  offset="0.5492" style="stop-color:#836AA9"/>
					<stop  offset="0.7459" style="stop-color:#947FB5"/>
					<stop  offset="0.8736" style="stop-color:#9A87B9"/>
					<stop  offset="1" style="stop-color:#8C76AF"/>
				</linearGradient>
				<path class="st1" d="M223.09,140.41c35.12,11.17,63.05,37.35,81.86,74.53c2.52,4.98,3.81,12.46,2.46,16.86
					c0.65-1.74,1.24-3.48,1.81-5.27C354.3,84.77,194.61-10.25,113.52,32.27c-1.54,0.86-3.1,1.69-4.64,2.6
					C4.55,97.04-30.56,230.95,28.84,336.15C-13.71,255.07,81.32,95.32,223.09,140.41z"/>
				
					<linearGradient id="SVGID_00000175290224431941288810000000518066318906268561_" gradientUnits="userSpaceOnUse" x1="713.4337" y1="-180.0646" x2="393.5746" y2="-157.6978" gradientTransform="matrix(0 -1 1 0 339.9956 846.6133)">
					<stop  offset="0" style="stop-color:#4F2683"/>
					<stop  offset="0.1185" style="stop-color:#4F2683"/>
					<stop  offset="0.1209" style="stop-color:#4F2683"/>
					<stop  offset="0.3094" style="stop-color:#684795"/>
					<stop  offset="0.5492" style="stop-color:#836AA9"/>
					<stop  offset="0.7459" style="stop-color:#947FB5"/>
					<stop  offset="0.8736" style="stop-color:#9A87B9"/>
					<stop  offset="1" style="stop-color:#8C76AF"/>
				</linearGradient>
				<path style="fill:url(#SVGID_00000175290224431941288810000000518066318906268561_);" d="M136.97,226.54
					c11.17-35.12,37.34-63.05,74.53-81.86c4.98-2.52,12.46-3.81,16.85-2.46c-1.74-0.65-3.48-1.24-5.26-1.81
					C81.34,95.33-13.69,255.03,28.83,336.11c0.86,1.55,1.69,3.1,2.6,4.64c62.17,104.32,196.07,139.44,301.27,80.04
					C251.63,463.35,91.88,368.31,136.97,226.54z"/>
				
					<linearGradient id="SVGID_00000008843636412392139880000011126455541192526783_" gradientUnits="userSpaceOnUse" x1="1056.8644" y1="216.9158" x2="737.01" y2="239.2822" gradientTransform="matrix(-1 0 0 -1 1186.6094 506.6172)">
					<stop  offset="0" style="stop-color:#4F2683"/>
					<stop  offset="0.1185" style="stop-color:#4F2683"/>
					<stop  offset="0.1209" style="stop-color:#4F2683"/>
					<stop  offset="0.3094" style="stop-color:#684795"/>
					<stop  offset="0.5492" style="stop-color:#836AA9"/>
					<stop  offset="0.7459" style="stop-color:#947FB5"/>
					<stop  offset="0.8736" style="stop-color:#9A87B9"/>
					<stop  offset="1" style="stop-color:#8C76AF"/>
				</linearGradient>
				<path style="fill:url(#SVGID_00000008843636412392139880000011126455541192526783_);" d="M223.1,312.66
					c-35.12-11.16-63.04-37.34-81.85-74.53c-2.52-4.98-3.81-12.45-2.46-16.86c-0.65,1.74-1.24,3.48-1.81,5.26
					C91.89,368.29,251.59,463.32,332.67,420.8c1.54-0.87,3.11-1.7,4.64-2.61c104.33-62.17,139.44-196.07,80.04-301.27
					C459.9,198,364.87,357.75,223.1,312.66z"/>
				
					<linearGradient id="SVGID_00000078031553481511163720000010198324806461580688_" gradientUnits="userSpaceOnUse" x1="659.8814" y1="560.3494" x2="340.0253" y2="582.7159" gradientTransform="matrix(0 1 -1 0 846.6133 -339.9961)">
					<stop  offset="0" style="stop-color:#4F2683"/>
					<stop  offset="0.1185" style="stop-color:#4F2683"/>
					<stop  offset="0.1209" style="stop-color:#4F2683"/>
					<stop  offset="0.3094" style="stop-color:#684795"/>
					<stop  offset="0.5492" style="stop-color:#836AA9"/>
					<stop  offset="0.7459" style="stop-color:#947FB5"/>
					<stop  offset="0.8736" style="stop-color:#9A87B9"/>
					<stop  offset="1" style="stop-color:#8C76AF"/>
				</linearGradient>
				<path style="fill:url(#SVGID_00000078031553481511163720000010198324806461580688_);" d="M309.22,226.53
					c-11.17,35.13-37.34,63.05-74.53,81.85c-4.98,2.53-12.46,3.82-16.86,2.46c1.74,0.65,3.48,1.25,5.26,1.81
					c141.76,45.08,236.78-114.62,194.27-195.7c-0.86-1.54-1.69-3.1-2.61-4.64C352.59,7.99,218.69-27.13,113.49,32.27
					C194.56-10.28,354.31,84.75,309.22,226.53z"/>
			</g>
		</g>
	</g>
</g>
</svg>
