<?xml version="1.0" encoding="UTF-8"?>
<svg id="_2C" data-name=" 2C" xmlns="http://www.w3.org/2000/svg" viewBox="0 0 260.37 219.75">
  <defs>
    <style>
      .cls-1 {
        fill-rule: evenodd;
      }

      .cls-1, .cls-2, .cls-3 {
        stroke-width: 0px;
      }

      .cls-1, .cls-3 {
        fill: #c12033;
      }

      .cls-2 {
        fill: #231f20;
      }
    </style>
  </defs>
  <path class="cls-1" d="M223.19,112.18c.42.03.85.07,1.24.15l1.97.38c1.78.34,3.57.67,5.35,1.03,1.89.37,3.78.74,5.66,1.12l2.18.43c.26.05,1.76.36,1.76.36l-.1-.66-.02-.12c-.02-.11-.03-.21-.06-.31l-.13-.39c-.14-.42-.29-.86-.46-1.28-.15-.35-.31-.7-.47-1.03-.11-.22-.21-.44-.31-.66-.45-1.03-.66-1.96-.66-2.85v-.48c0-.34.16-.7.49-1.07l.19-.21c.57-.64,1.28-1.14,2.02-1.67l.16-.12c1.32-.95,2.41-1.74,3.41-2.48.73-.54,1.45-1.09,2.17-1.64,0,0,8.07-6.16,11.84-9.05.07-.06.14-.11.23-.19l.71-.61-.7-.29c-.13-.06-.26-.11-.39-.16-.26-.11-.5-.21-.76-.3-.36-.13-.73-.25-1.09-.37-.34-.11-.69-.23-1.03-.35-.51-.18-.93-.39-1.27-.65-.44-.33-.71-.74-.81-1.24-.08-.4-.04-.85.14-1.38.08-.25.16-.49.25-.74.11-.34.24-.68.34-1.03.96-3.09,1.91-6.18,2.86-9.26.02-.07.03-.13.05-.22l.14-.72-.64.09-.35.05c-.25.03-.5.07-.75.11l-2.86.54c-1.21.23-2.42.46-3.63.68-.89.16-1.85.33-2.79.33h-.2c-.6-.02-1.08-.22-1.47-.62-.24-.24-.47-.53-.71-.88-.36-.52-.57-1.12-.71-1.59-.12-.39-.24-.8-.36-1.19l-.29-.95c-.03-.1-.07-.2-.11-.31l-.07-.16-.25-.66-.84.84c-.25.25-.48.48-.71.71-1.4,1.46-2.69,3.06-3.93,4.6l-.3.38c-.87,1.08-1.74,2.14-2.61,3.22-.29.35-.69.8-1.18,1.14-.35.24-.66.35-.98.35h-.07c-.48-.02-.71-.24-.78-.72-.05-.36-.04-.76.04-1.2.25-1.4.53-2.86.84-4.37.62-3.12,3.24-16.35,3.24-16.35.05-.26.1-.52.15-.8l.24-1.35-.81.39c-.09.04-.16.07-.24.11-.17.07-.33.15-.49.25-.75.49-1.4.93-1.99,1.35-.3.21-.6.43-.89.64-.33.24-.66.48-.98.71-.42.29-.89.51-1.38.66-.32.1-.62.15-.92.15-.78,0-1.47-.35-2.03-1.05-.37-.46-.61-1-.8-1.48l-.71-1.79c-.57-1.41-1.13-2.83-1.71-4.24-.58-1.41-1.17-2.82-1.76-4.22l-.73-1.74c-.04-.09-.08-.18-.14-.28l-.09-.17-.44-.88-1.7,3.73c-1.56,3.41-3.17,6.95-4.58,10.51,0,.02-.35.71-1.37,1.29-.36.21-1.06.39-1.47.35-.49-.05-.95-.24-1.36-.48-.52-.31-1.04-.65-1.55-1.02-.48-.34-.96-.69-1.44-1.03-.34-.25-.68-.49-1.02-.74-.18-.13-.42-.29-.69-.41-.15-.07-.27-.1-.39-.1-.19,0-.36.07-.48.21-.14.16-.18.39-.13.66l.11.66c.15.83.29,1.66.44,2.48.32,1.64.64,3.28.95,4.92.59,3.05,1.19,6.11,1.76,9.16.24,1.25.44,2.53.63,3.77.07.39.12.78.19,1.17.04.27-.08,1.3-.75,1.26-.22-.02-.47-.09-.71-.26-.36-.25-.68-.59-.92-.85-.23-.25-.44-.51-.66-.78-.16-.21-.33-.41-.5-.61-.68-.79-1.37-1.58-2.05-2.36-.85-.98-1.71-1.96-2.56-2.95-.13-.16-.27-.31-.41-.46-.52-.58-1-1.13-1.4-1.76-.12-.19-.28-.34-.41-.46-.25-.22-.51-.33-.81-.33h-.33l-.2.56c-.07.19-.14.39-.2.57-.1.32-.21.65-.3.97-.16.52-.32,1.03-.48,1.54-.16.48-.38.92-.66,1.29-.39.51-.86.81-1.45.93-.3.06-.62.08-.94.08s-.66-.02-1-.08c-1.49-.24-3.01-.51-4.48-.77l-.08-.02c-.82-.15-1.63-.3-2.45-.45l-1.48-.27c-.11-.02-.23-.03-.36-.05l-.17-.02-.66-.07.19.77c.02.09.04.16.06.23l.45,1.57c.39,1.36.78,2.73,1.17,4.1l.25.85c.41,1.44.84,2.93,1.41,4.36.07.18.12.38.16.55.12.5.1.9-.08,1.25-.39.76-.9,1.25-1.58,1.47-.26.09-.53.16-.79.24-.21.07-.43.12-.64.19l-.15.05c-.45.14-.92.29-1.36.47-.21.08-.41.21-.59.33-.07.05-.16.1-.24.15l-.57.34.65.53c.07.07.14.11.21.16l.25.18c.47.35.94.71,1.42,1.06l4.03,2.97c3.09,2.28,6.19,4.56,9.28,6.85,1.15.85,2.27,1.71,3.34,2.54.72.57,1.35,1.24,1.88,2,.07.11.11.22.12.37.09,1.11-.08,2.18-.53,3.2-.18.43-.38.85-.57,1.26l-.17.39c-.24.52-.5,1.14-.62,1.83l-.02.08c-.04.19-.1.48.04.78l.16.33,3.94-.78c2.29-.46,4.57-.91,6.86-1.36,1.83-.36,3.67-.71,5.5-1.06.44-.08.92-.16,1.38-.19h.15c2.08-.25,1.81,1.88,1.81,1.88-5.79,51.06-49.13,90.74-101.74,90.74-56.55,0-102.4-45.84-102.4-102.4S58.17,1.73,113.26.06c-1.12-.03-2.25-.06-3.37-.06C49.19,0,0,49.19,0,109.88s49.19,109.88,109.88,109.88,107.23-46.6,109.78-105.03c0-.22.07-2.84,3.55-2.54h0Z"/>
  <path class="cls-2" d="M57.01,107.39h-.06l-2.66,16.56h-5.87l-4.28-21.33h4.83l2.57,15.16h.06l2.54-15.16h5.87l2.6,15.16h.06l2.75-15.16h4.4l-4.19,21.33h-5.87l-2.75-16.56h0Z"/>
  <path class="cls-2" d="M79.83,102.25c6.14,0,9.08,4.77,9.08,11.03s-2.93,11.03-9.08,11.03-9.05-4.77-9.05-11.03,2.91-11.03,9.05-11.03ZM79.83,120.71c2.91,0,3.94-3.33,3.94-7.43s-1.04-7.43-3.94-7.43-3.92,3.33-3.92,7.43,1.01,7.43,3.92,7.43Z"/>
  <path class="cls-2" d="M108.53,107.08h-.06l-4.8,16.88h-3.3l-4.61-16.88h-.06v16.88h-4.59v-21.33h7.55l3.46,13.72h.06l3.73-13.72h7.22v21.33h-4.59v-16.88h0Z"/>
  <path class="cls-2" d="M116.54,102.62h12.32v3.73h-7.49v4.77h7.12v3.73h-7.12v5.38h7.86v3.73h-12.68v-21.33h0Z"/>
  <path class="cls-2" d="M131.69,102.62h5.87l6.21,14.79h.06v-14.79h4.4v21.33h-5.93l-6.14-15.44h-.06v15.44h-4.4v-21.33h0Z"/>
  <path class="cls-2" d="M151.96,101.03h4.59l-2.45,7.95h-3.6l1.47-7.95h0Z"/>
  <path class="cls-2" d="M169.29,106.96c-1.19-.61-2.87-1.1-4.22-1.1-1.62,0-2.84.73-2.84,2.32,0,3.88,8.41,2.08,8.41,9.66,0,4.03-3.21,6.48-7.46,6.48-2.6,0-4.83-.61-5.75-.89l.28-4.15c1.49.58,2.82,1.31,4.68,1.31,1.59,0,3.12-.8,3.12-2.54,0-4.13-8.41-2.11-8.41-9.72,0-.64.25-6.08,7.4-6.08,1.95,0,3.18.34,5.02.73l-.21,3.97h0Z"/>
  <path class="cls-2" d="M62.95,128.68c11.16,0,16.5,8.67,16.5,20.05s-5.34,20.05-16.5,20.05-16.44-8.67-16.44-20.05,5.28-20.05,16.44-20.05h0ZM62.95,162.24c5.28,0,7.17-6.06,7.17-13.5s-1.89-13.5-7.17-13.5-7.11,6.06-7.11,13.5,1.83,13.5,7.11,13.5Z"/>
  <path class="cls-2" d="M83.45,129.34h12.39c8.28,0,13.28,3.95,13.28,12.34,0,6.61-3.67,12.28-12.16,12.28h-4.39v14.17h-9.11v-38.78h0ZM95.12,147.18c2.83,0,4.89-1.95,4.89-5.56,0-3.83-1.78-5.5-5.39-5.5h-2.39v11.06h2.89Z"/>
  <path class="cls-2" d="M112.12,129.34h22.39v6.78h-13.61v8.67h12.94v6.78h-12.94v9.78h14.27v6.78h-23.06v-38.78h0Z"/>
  <path class="cls-2" d="M139.68,129.34h10.67l11.28,26.89h.11v-26.89h8v38.78h-10.78l-11.16-28.06h-.11v28.06h-8v-38.78h0Z"/>
  <rect class="cls-2" x="43.91" y="88.74" width="127.77" height="1.52"/>
  <path class="cls-3" d="M65.9,50.42h-15.07c-5.47,0-7.32,2.07-7.32,7.45v12.38c0,5.27,1.87,7.28,7.32,7.28h15.07c5.47,0,7.32-2.01,7.32-7.28v-1.19l-8.26-1.7v3.39h-13.21v-13.55h13.21v3.39l8.26-1.7v-1.01c0-5.43-1.85-7.45-7.32-7.45h0Z"/>
  <path class="cls-3" d="M99.71,50.43h-22.92v27.11h8.24v-6.78h14.68c4.97,0,6.8-2,6.8-6.16v-7.96c0-4.21-1.81-6.21-6.8-6.21ZM98.28,63.98h-13.24v-6.78h13.24v6.78Z"/>
  <polygon class="cls-3" points="118.58 74.02 123.32 68.74 130.64 77.53 141.08 77.53 128.75 62.69 139.79 50.44 129.44 50.44 118.58 62.42 118.58 50.45 110.33 50.45 110.33 77.53 118.58 77.53 118.58 74.02"/>
  <path class="cls-3" d="M164.64,50.42h-15.07c-5.47,0-7.32,2.07-7.32,7.45v12.38c0,5.27,1.87,7.28,7.32,7.28h15.07c5.47,0,7.32-2.01,7.32-7.28v-1.19l-8.26-1.7v3.39h-13.21v-13.55h13.21v3.39l8.26-1.7v-1.01c0-5.43-1.85-7.45-7.32-7.45h0Z"/>
  <path class="cls-3" d="M65.9,50.42h-15.07c-5.47,0-7.32,2.07-7.32,7.45v12.38c0,5.27,1.87,7.28,7.32,7.28h15.07c5.47,0,7.32-2.01,7.32-7.28v-1.19l-8.26-1.7v3.39h-13.21v-13.55h13.21v3.39l8.26-1.7v-1.01c0-5.43-1.85-7.45-7.32-7.45h0Z"/>
  <path class="cls-3" d="M99.71,50.43h-22.92v27.11h8.24v-6.78h14.68c4.97,0,6.8-2,6.8-6.16v-7.96c0-4.21-1.81-6.21-6.8-6.21ZM98.28,63.98h-13.24v-6.78h13.24v6.78Z"/>
  <path class="cls-3" d="M164.64,50.42h-15.07c-5.47,0-7.32,2.07-7.32,7.45v12.38c0,5.27,1.87,7.28,7.32,7.28h15.07c5.47,0,7.32-2.01,7.32-7.28v-1.19l-8.26-1.7v3.39h-13.21v-13.55h13.21v3.39l8.26-1.7v-1.01c0-5.43-1.85-7.45-7.32-7.45h0Z"/>
</svg>
