<svg width="230" height="34" viewBox="0 0 230 34" fill="none" xmlns="http://www.w3.org/2000/svg">
<g clip-path="url(#clip0_125_696)">
<path d="M46.8562 16.652C46.7778 16.5736 46.6764 16.5275 46.5657 16.5275C46.5473 16.5275 46.5288 16.5275 46.5058 16.5275C46.4366 16.5367 46.372 16.5644 46.3213 16.6059C43.5406 17.6619 41.3732 17.4867 40.0406 17.15C39.0168 16.8918 38.2375 16.1032 38.0023 15.1026C37.6979 13.8068 37.4351 11.501 37.7164 7.59517C37.7302 7.39227 37.6103 7.20781 37.4259 7.14786C37.389 7.13864 37.3475 7.12942 37.3106 7.12942C37.1584 7.12942 37.0201 7.21703 36.9463 7.35999C31.2604 13.7837 26.9533 11.3258 23.8268 0.410579C23.8176 0.378299 23.8176 0.373687 23.813 0.355242C23.7899 0.170785 23.6608 0.0186081 23.4856 -0.0136719C23.3057 0.0186081 23.1766 0.170785 23.1535 0.359853C23.1489 0.378299 23.1489 0.38291 23.1397 0.410579C20.0224 11.3304 15.7153 13.7883 10.0202 7.37382C9.95104 7.23087 9.80808 7.14325 9.65591 7.14325C9.61901 7.14325 9.57751 7.14786 9.54062 7.1617C9.35155 7.21703 9.23166 7.4061 9.2501 7.60901C9.53601 11.5149 9.27316 13.8206 8.97342 15.1164C8.73823 16.1171 7.96352 16.9056 6.93978 17.1639C5.60708 17.5005 3.43971 17.6803 0.659027 16.6289C0.603689 16.5874 0.53913 16.5598 0.47457 16.5505C0.456124 16.5505 0.437678 16.5505 0.414621 16.5505C0.308559 16.5505 0.202496 16.5921 0.124102 16.6751C-0.00962927 16.8134 -0.0326864 17.0209 0.059542 17.1823C0.160993 17.376 2.51282 22.0105 0.875763 24.8234C0.548352 25.386 0.391564 25.8887 0.391564 26.4005C0.391564 26.4236 0.391564 26.5527 0.391564 26.751C2.12546 22.8175 11.0762 19.7785 22.0745 19.5203V10.7678H22.7846V10.8324C22.9552 11.1091 23.7622 12.2112 25.4731 11.7916C27.4191 11.312 29.153 13.0413 29.153 13.0413C29.153 13.0413 27.1609 12.7277 25.4731 13.9036C24.3294 14.7014 23.2504 14.9596 22.7846 15.038V19.5065C22.9276 19.5065 23.0659 19.4972 23.2043 19.4972C23.4302 19.4972 23.8499 19.4972 24.3571 19.5065C25.0119 19.5157 25.6621 19.5295 26.3031 19.5572C26.6305 19.571 26.9395 19.5849 27.2162 19.6079C37.1446 20.1982 44.9886 23.0757 46.6072 26.7326C46.6072 26.5343 46.6072 26.4052 46.6072 26.3821C46.6072 25.8702 46.4504 25.3722 46.1184 24.8096C44.4767 22.0012 46.8239 17.3622 46.9254 17.1685C47.013 17.0071 46.99 16.7996 46.8608 16.6612L46.8562 16.652Z" fill="black"/>
<path d="M23.6049 21.319C9.18965 21.2913 -5.27176 25.935 2.71522 34.0004C-1.44428 27.6412 11.1034 24.2933 23.6049 24.3026C36.1019 24.2933 48.6496 27.6412 44.4947 34.0004C52.4817 25.935 38.0202 21.2913 23.6049 21.319Z" fill="url(#paint0_linear_125_696)"/>
<path d="M147.981 7.44287H145.602V18.2751H153.487V16.0155H147.981V7.44287Z" fill="black"/>
<path d="M159.062 7.44287H156.637V18.2751H159.062V7.44287Z" fill="black"/>
<path d="M162.788 18.2754H165.172V14.2219H169.488V11.9716H165.172V9.66585H171.084V7.44775H162.788V18.2754Z" fill="black"/>
<path d="M173.731 18.2754H181.875V16.0573H176.111V13.9314H180.427V11.681H176.111V9.66585H181.875V7.44775H173.731V18.2754Z" fill="black"/>
<path d="M189.673 7.44287H184.905V18.2751H187.284V15.7665H189.659C192.283 15.7665 193.989 14.1387 194.003 11.6208C194.012 10.4449 193.625 9.43039 192.883 8.67873C192.089 7.88096 190.95 7.44287 189.678 7.44287M191.31 12.8336C191.02 13.3086 190.517 13.5484 189.816 13.5484H187.284V9.66558H189.761C190.314 9.66558 190.752 9.82698 191.07 10.1498C191.485 10.574 191.628 11.1873 191.619 11.6254C191.619 11.9528 191.559 12.4324 191.31 12.8336Z" fill="black"/>
<path d="M198.711 7.44287H196.327V18.2751H204.213V16.0155H198.711V7.44287Z" fill="black"/>
<path d="M212.162 14.4478C212.162 15.5269 211.494 16.0849 210.184 16.0941H210.143C209.497 16.0941 208.981 15.9235 208.658 15.6007C208.39 15.3378 208.252 14.9597 208.252 14.4847V7.27246H205.854V14.4294C205.854 16.8365 207.473 18.2707 210.184 18.2707C212.896 18.2707 214.542 16.8596 214.542 14.4017V7.27246H212.162V14.4432V14.4478Z" fill="black"/>
<path d="M222.294 11.7961L221.957 11.6946C220.255 11.1781 219.827 10.966 219.836 10.3573C219.836 10.0114 219.85 9.37045 221.607 9.37045C222.547 9.37045 223.945 10.1221 224.217 10.2743L224.673 10.5371L225.785 8.71563L225.36 8.42511C225.291 8.37899 223.668 7.27686 221.851 7.21691C219.02 7.1293 217.479 8.19454 217.373 10.302C217.304 11.4594 217.927 12.4555 219.089 13.0319C219.476 13.2302 220.034 13.4008 220.629 13.5899C221.574 13.8896 223.331 14.443 223.331 15.0471C223.331 15.3515 223.262 15.5682 223.124 15.7019C222.759 16.0662 221.782 16.0478 221.256 16.0386C220.251 16.0247 218.895 15.4068 218.296 14.9918L217.811 14.6551L216.682 16.6473L217.069 16.9286C217.069 16.9286 218.688 18.1091 221.086 18.2567C221.316 18.2705 221.547 18.2797 221.759 18.2797C224.069 18.2797 225.402 17.4404 225.72 15.7849C226.181 13.3409 224.129 12.3679 222.289 11.7961" fill="black"/>
<path d="M65.4688 10.4726H58.9206V6.49756H56.5918V18.2751H58.9206V12.5708H65.4688V18.2751H67.7976V6.49756H65.4688V10.4726Z" fill="black"/>
<path d="M77.5872 8.89551H71.9981V10.9476H77.6195C78.4311 10.9476 78.8645 11.2658 78.9337 11.9252V11.9483H74.3361C73.4 11.9483 72.653 12.2157 72.1226 12.7507C71.5462 13.2902 71.2695 13.9635 71.2695 14.812V15.4483C71.2695 16.3014 71.5416 16.9701 72.1042 17.482C72.6345 18.0123 73.3862 18.2844 74.3315 18.2844H78.1221C79.0997 18.2844 79.8329 18.0584 80.3632 17.5926C80.9627 17.0808 81.2671 16.3798 81.2671 15.5129V12.3725C81.2671 11.2888 80.9397 10.4311 80.2987 9.81779C79.6577 9.20908 78.7446 8.90012 77.5826 8.90012M78.9429 14.9641V15.2593C78.9429 15.5452 78.9429 16.2138 77.7255 16.2138H74.788C73.9441 16.2138 73.6029 15.9371 73.6029 15.2593V14.9641C73.6029 14.2863 73.958 13.9957 74.788 13.9957H77.7255C78.5556 13.9957 78.9429 14.3047 78.9429 14.9641Z" fill="black"/>
<path d="M90.0431 8.89551H88.217C87.0088 8.89551 86.0404 9.2552 85.3441 9.97458C84.6339 10.7032 84.2881 11.6716 84.2881 12.9397V18.2797H86.6169V13.032C86.6169 12.3264 86.7275 11.8468 86.9581 11.5655C87.2901 11.1782 87.7513 10.9799 88.3277 10.9799H89.9048C90.4997 10.9799 90.9516 11.1689 91.2836 11.5563C91.5372 11.8653 91.6664 12.3633 91.6664 13.032V18.2797H93.9951V12.9397C93.9951 11.7085 93.6354 10.7078 92.9345 9.96997C92.2243 9.25981 91.2513 8.90012 90.0478 8.90012" fill="black"/>
<path d="M108.913 14.4986C108.913 15.0658 108.784 15.5039 108.544 15.7575C108.263 16.0526 107.903 16.1956 107.446 16.1956H106.644C106.188 16.1956 105.823 16.048 105.56 15.7575C105.33 15.5131 105.21 15.0889 105.21 14.4986V8.89572H102.913V14.4986C102.913 15.0658 102.784 15.5039 102.544 15.7575C102.263 16.0526 101.904 16.1956 101.447 16.1956H100.645C100.188 16.1956 99.8238 16.048 99.5609 15.7575C99.3303 15.5131 99.2104 15.0889 99.2104 14.4986V8.89572H96.8955V14.4848C96.8955 15.6745 97.2091 16.5968 97.8224 17.2239C98.4726 17.9203 99.358 18.2754 100.456 18.2754H101.599C102.554 18.2754 103.375 17.9203 104.043 17.2239L104.057 17.2101L104.071 17.2239C104.726 17.9249 105.537 18.2754 106.487 18.2754H107.617C108.71 18.2754 109.6 17.9249 110.259 17.2286C110.9 16.5691 111.223 15.6468 111.223 14.4802V8.89111H108.913V14.494V14.4986Z" fill="black"/>
<path d="M120.017 8.88172H118.191C117.62 8.88172 117.089 9.00161 116.614 9.23218L116.587 9.24602V6.46533H114.258V18.2752H116.587V13.0135C116.587 12.308 116.697 11.8284 116.928 11.5471C117.26 11.1598 117.721 10.9615 118.297 10.9615H119.875C120.469 10.9615 120.917 11.1505 121.253 11.5379C121.507 11.8515 121.636 12.3449 121.636 13.0135V18.2752H123.965V12.9213C123.965 11.6901 123.61 10.6894 122.904 9.95157C122.194 9.24141 121.221 8.88172 120.017 8.88172Z" fill="black"/>
<path d="M135.807 9.81318C135.166 9.20447 134.253 8.89551 133.091 8.89551H127.502V10.9476H133.123C133.935 10.9476 134.368 11.2658 134.438 11.9252V11.9483H129.84C128.904 11.9483 128.157 12.2157 127.627 12.7507C127.05 13.2902 126.773 13.9635 126.773 14.812V15.4483C126.773 16.3014 127.046 16.9701 127.608 17.482C128.138 18.0123 128.89 18.2844 129.835 18.2844H133.626C134.604 18.2844 135.337 18.0584 135.867 17.5926C136.467 17.0808 136.771 16.3798 136.771 15.5129V12.3725C136.771 11.2888 136.444 10.4311 135.803 9.81779M134.447 14.9641V15.2593C134.447 15.5452 134.447 16.2138 133.229 16.2138H130.292C129.448 16.2138 129.107 15.9371 129.107 15.2593V14.9641C129.107 14.2863 129.462 13.9957 130.292 13.9957H133.229C134.059 13.9957 134.447 14.3047 134.447 14.9641Z" fill="black"/>
<path d="M56.5918 31.8189V25.2983H57.3896V31.8189H56.5918Z" fill="black"/>
<path d="M66.7972 31.8189L63.0297 26.5434L63.0942 27.4565V31.8189H62.3057V25.2983H63.002L66.7695 30.5922L66.6865 29.6607L66.705 25.2983H67.4935V31.8189H66.7972Z" fill="black"/>
<path d="M73.9395 31.8189V25.9947H71.8828V25.2983H76.794V25.9947H74.7373V31.8189H73.9395Z" fill="black"/>
<path d="M81.1846 31.8189V25.2983H85.6761V26.0039H81.9731V28.1436H84.7446V28.8584H81.9731V31.0903H85.6761V31.8235H81.1846V31.8189Z" fill="black"/>
<path d="M94.0732 31.8189C93.9256 30.8505 93.2247 29.5777 92.1456 29.5777L90.9282 29.5685V31.8189H90.1396V25.2983H92.3439C94.064 25.2983 94.8202 26.2483 94.8202 27.438C94.8202 28.3234 94.4006 29.0751 93.4829 29.4025C94.2254 29.8683 94.7096 30.749 94.8894 31.8189H94.0686H94.0732ZM92.3347 28.8584C93.5244 28.8584 94.0455 28.2819 94.0455 27.4334C94.0455 26.5849 93.5244 26.0085 92.3347 26.0085H90.9282V28.863H92.3347V28.8584Z" fill="black"/>
<path d="M103.789 31.8189L100.022 26.5434L100.086 27.4565V31.8189H99.2979V25.2983H99.9942L103.762 30.5922L103.679 29.6607L103.697 25.2983H104.486V31.8189H103.789Z" fill="black"/>
<path d="M114.023 31.8191L113.391 30.2005H110.163L109.54 31.8191H108.747L111.371 25.2524H112.192L114.834 31.8191H114.018H114.023ZM111.772 26.041L110.435 29.5088H113.114L111.772 26.041Z" fill="black"/>
<path d="M119.957 31.8189V25.9947H117.9V25.2983H122.812V25.9947H120.755V31.8189H119.957Z" fill="black"/>
<path d="M127.275 31.8189V25.2983H128.073V31.8189H127.275Z" fill="black"/>
<path d="M132.639 28.5541C132.639 26.4513 134.11 25.1509 136.033 25.1509C137.956 25.1509 139.427 26.4513 139.427 28.5541C139.427 30.6569 137.956 31.985 136.033 31.985C134.11 31.985 132.639 30.6569 132.639 28.5541ZM138.62 28.5541C138.62 26.9078 137.448 25.8472 136.033 25.8472C134.617 25.8472 133.446 26.9078 133.446 28.5541C133.446 30.2004 134.617 31.2518 136.033 31.2518C137.448 31.2518 138.62 30.2004 138.62 28.5541Z" fill="black"/>
<path d="M148.414 31.8189L144.647 26.5434L144.711 27.4565V31.8189H143.923V25.2983H144.619L148.387 30.5922L148.304 29.6607L148.322 25.2983H149.111V31.8189H148.414Z" fill="black"/>
<path d="M158.651 31.8191L158.02 30.2005H154.792L154.169 31.8191H153.376L156 25.2524H156.821L159.463 31.8191H158.647H158.651ZM156.401 26.041L155.064 29.5088H157.743L156.401 26.041Z" fill="black"/>
<path d="M163.729 31.8189V25.2983H164.517V31.0857H168.049V31.8189H163.733H163.729Z" fill="black"/>
<path d="M183.77 31.0996C183.176 31.6852 182.318 32.0218 181.382 32.0218C179.307 32.0218 177.979 30.6938 177.979 28.5909C177.979 26.4881 179.307 25.1508 181.382 25.1416C182.313 25.1416 183.166 25.4875 183.761 26.0731L182.973 26.9493C182.59 26.585 181.912 26.2991 181.391 26.2991C180.284 26.2991 179.307 26.9677 179.288 28.5863C179.279 30.1865 180.21 30.8367 181.391 30.8367C181.912 30.8367 182.571 30.5785 182.954 30.2234L183.77 31.0903V31.0996Z" fill="black"/>
<path d="M191.697 31.8558C191.513 30.8874 190.729 29.7991 189.802 29.7991H189.253V31.8558H188.045V25.2983H190.517C192.117 25.2983 192.887 26.1837 192.887 27.521C192.887 28.6001 192.154 29.2596 191.508 29.3887C192.131 29.8452 192.818 30.7168 193.044 31.8558H191.702H191.697ZM190.461 28.7016C191.231 28.7016 191.642 28.1344 191.633 27.5487C191.623 26.9354 191.305 26.3774 190.461 26.3774H189.253V28.7016H190.461Z" fill="black"/>
<path d="M197.033 28.5818C197.033 26.5066 198.393 25.1509 200.464 25.1416C202.566 25.1324 203.904 26.5159 203.904 28.5818C203.904 30.6477 202.589 32.0127 200.464 32.0219C198.425 32.0311 197.033 30.6846 197.033 28.5818ZM202.654 28.5818C202.654 27.2168 201.796 26.2761 200.459 26.2853C199.089 26.2945 198.255 27.2537 198.255 28.5818C198.255 29.9099 199.076 30.869 200.459 30.8783C201.796 30.8875 202.654 29.9744 202.654 28.5818Z" fill="black"/>
<path d="M213.131 31.8558L212.08 27.7332L211.96 26.9446L211.849 27.7332L210.816 31.8558H209.544L207.704 25.2983H208.93L210.185 30.025L211.328 25.2983H212.601L213.745 30.0343L215.008 25.2983H216.226L214.386 31.8558H213.131Z" fill="black"/>
<path d="M224.572 31.8558L221.561 27.2075L221.644 27.9038V31.8558H220.436V25.2983H221.681L224.637 29.9098L224.581 29.1858V25.2983H225.789V31.8558H224.572Z" fill="black"/>
<path d="M225.789 21.7339H56.5918V22.0475H225.789V21.7339Z" fill="black"/>
<path d="M228.196 31.9111C228.003 31.9111 227.823 31.8558 227.666 31.7359C227.486 31.5975 227.385 31.4177 227.357 31.1917C227.334 30.9934 227.366 30.8044 227.477 30.6337C227.597 30.4447 227.772 30.334 227.989 30.2833C228.215 30.2325 228.436 30.2556 228.639 30.3709C228.879 30.5046 229.017 30.7075 229.05 30.9796C229.082 31.2424 229.008 31.473 228.819 31.6621C228.685 31.7958 228.524 31.8696 228.339 31.8973C228.293 31.9019 228.243 31.9065 228.196 31.9111ZM228.196 30.357C228.164 30.357 228.132 30.357 228.095 30.3663C227.906 30.3893 227.749 30.4723 227.629 30.6153C227.491 30.7813 227.44 30.975 227.468 31.1871C227.5 31.4315 227.629 31.616 227.846 31.7266C228.021 31.8189 228.206 31.8281 228.395 31.7866C228.57 31.7451 228.713 31.6575 228.814 31.5099C228.897 31.39 228.939 31.2563 228.943 31.1133C228.948 30.9519 228.911 30.7997 228.814 30.666C228.662 30.4585 228.45 30.3663 228.192 30.357H228.196Z" fill="black"/>
<path d="M227.841 31.5885V30.5786C227.841 30.5786 227.86 30.5786 227.869 30.5786C228.003 30.5786 228.136 30.5786 228.27 30.5786C228.441 30.5786 228.561 30.7077 228.588 30.8415C228.611 30.9706 228.579 31.0813 228.473 31.1643C228.45 31.1827 228.422 31.1919 228.395 31.2104C228.473 31.3349 228.556 31.464 228.634 31.5931C228.565 31.5931 228.505 31.5931 228.441 31.5931C228.432 31.5931 228.427 31.5839 228.422 31.5747C228.353 31.4686 228.289 31.3626 228.224 31.2611C228.215 31.2473 228.206 31.2427 228.187 31.2427C228.132 31.2427 228.076 31.2427 228.021 31.2427V31.5931H227.841V31.5885ZM228.017 31.0766C228.017 31.0766 228.021 31.0766 228.026 31.0766C228.113 31.0766 228.201 31.0766 228.284 31.0766C228.33 31.0766 228.367 31.0536 228.39 31.0075C228.404 30.9798 228.413 30.9521 228.413 30.9245C228.422 30.8138 228.358 30.74 228.261 30.7354C228.183 30.7354 228.104 30.7354 228.026 30.7354C228.026 30.7354 228.017 30.7354 228.012 30.7354V31.072L228.017 31.0766Z" fill="black"/>
</g>
<defs>
<linearGradient id="paint0_linear_125_696" x1="0.437176" y1="27.6597" x2="46.7727" y2="27.6597" gradientUnits="userSpaceOnUse">
<stop stop-color="#FF6A00"/>
<stop offset="0.15" stop-color="#FD8F3E"/>
<stop offset="0.47" stop-color="#F9E5CC"/>
<stop offset="0.54" stop-color="#F9D9B9"/>
<stop offset="0.67" stop-color="#FABC88"/>
<stop offset="0.87" stop-color="#FD8D3A"/>
<stop offset="1" stop-color="#FF6A00"/>
</linearGradient>
<clipPath id="clip0_125_696">
<rect width="229.054" height="34" fill="white"/>
</clipPath>
</defs>
</svg>
