<?xml version="1.0" encoding="UTF-8"?>
<svg id="uuid-b689bd75-e9d1-49af-a468-0cf05e25fad5" data-name="Layer 1" xmlns="http://www.w3.org/2000/svg" viewBox="0 0 2247.13 789.32">
  <defs>
    <style>
      .uuid-889f1d32-ac88-4e96-97eb-d13956bc9945 {
        fill: #00315a;
      }

      .uuid-13eb971a-15e6-4bae-98fe-b91685fbef87 {
        fill: #fff;
      }

      .uuid-a04a9d6a-64cf-488a-a1f4-dfab5f55b8ed {
        fill: #e30612;
      }
    </style>
  </defs>
  <rect class="uuid-889f1d32-ac88-4e96-97eb-d13956bc9945" x="1570.81" y="364.93" width="657.76" height="417.93"/>
  <g>
    <path class="uuid-13eb971a-15e6-4bae-98fe-b91685fbef87" d="m115.71,757.42c0,14.03-8.26,23.25-23.44,23.25h-58.6c-12.3,0-22.67-6.72-22.67-22.29v-20.94h27.67v19.59h49.37v-20.17l-63.97-18.44c-9.99-3.07-13.07-8.45-13.07-19.59v-23.63c0-13.84,7.88-19.4,20.75-19.4h62.25c17.29,0,21.71,9.03,21.71,24.97v16.14h-27.67v-17.67h-49.37v18.06l64.36,18.44c10.19,3.07,12.68,8.07,12.68,20.56v21.13Z"/>
    <path class="uuid-13eb971a-15e6-4bae-98fe-b91685fbef87" d="m237.16,731.68v25.75c0,12.11-6.15,23.25-23.63,23.25h-56.87c-15.56,0-24.4-8.45-24.4-24.21v-76.66c0-17.86,8.26-24.01,22.09-24.01h60.71c16.14,0,22.1,8.07,22.1,24.97v16.72h-27.67v-16.72h-49.57v75.13h49.57v-24.21h27.67Z"/>
    <path class="uuid-13eb971a-15e6-4bae-98fe-b91685fbef87" d="m252.75,758.38v-82.8c0-13.84,7.88-19.79,19.98-19.79h68.78c14.98,0,19.59,9.41,19.59,24.97v76.28c0,12.49-8.26,23.63-23.44,23.63h-62.05c-12.49,0-22.86-6.72-22.86-22.29Zm80.69-2.49v-75.13h-53.02v75.13h53.02Z"/>
    <path class="uuid-13eb971a-15e6-4bae-98fe-b91685fbef87" d="m410.7,680.19h-39v-24.4h106.44v5.16c0,10.62-8.61,19.23-19.23,19.23h-19.97v100.48h-28.24v-100.48Z"/>
    <path class="uuid-13eb971a-15e6-4bae-98fe-b91685fbef87" d="m523.12,680.19h-39v-24.4h106.44v5.16c0,10.62-8.61,19.23-19.23,19.23h-19.96v100.48h-28.25v-100.48Z"/>
    <path class="uuid-13eb971a-15e6-4bae-98fe-b91685fbef87" d="m624.82,655.79h6.68v124.88h-28.25v-103.31c0-11.91,9.66-21.57,21.57-21.57Z"/>
    <path class="uuid-13eb971a-15e6-4bae-98fe-b91685fbef87" d="m754.67,757.42c0,14.03-8.26,23.25-23.44,23.25h-58.6c-12.3,0-22.67-6.72-22.67-22.29v-20.94h27.67v19.59h49.37v-20.17l-63.97-18.44c-9.99-3.07-13.07-8.45-13.07-19.59v-23.63c0-13.84,7.88-19.4,20.75-19.4h62.25c17.29,0,21.71,9.03,21.71,24.97v16.14h-27.67v-17.67h-49.37v18.06l64.36,18.44c10.19,3.07,12.68,8.07,12.68,20.56v21.13Z"/>
    <path class="uuid-13eb971a-15e6-4bae-98fe-b91685fbef87" d="m794.4,655.79h5.45v51.29h51.87v-51.29h28.05v124.88h-28.05v-49.57h-51.87v49.57h-28.24v-102.09c0-12.59,10.2-22.79,22.79-22.79Z"/>
  </g>
  <g>
    <path class="uuid-13eb971a-15e6-4bae-98fe-b91685fbef87" d="m946.14,758.37v-82.85c0-13.84,7.88-19.8,19.99-19.8h68.82c14.99,0,19.6,9.42,19.6,24.98v76.32c0,12.5-8.26,23.65-23.45,23.65h-62.09c-12.5,0-22.87-6.73-22.87-22.3Zm80.73-2.49v-75.17h-53.05v75.17h53.05Z"/>
    <path class="uuid-13eb971a-15e6-4bae-98fe-b91685fbef87" d="m1072.27,655.73h84.77c13.26,0,17.87,8.46,17.87,22.87v50.74c0,11.34-6.73,21.91-20.76,21.91h-53.83v29.41h-28.06v-124.94Zm74.96,72.27v-47.86h-46.9v47.86h46.9Z"/>
    <path class="uuid-13eb971a-15e6-4bae-98fe-b91685fbef87" d="m1189.74,655.73h76.36c9.53,0,17.26,7.73,17.26,17.26v6.19h-65.36v26.91h46.71v23.07h-46.71v28.07h65.36v23.45h-93.61v-124.94Z"/>
    <path class="uuid-13eb971a-15e6-4bae-98fe-b91685fbef87" d="m1374.69,780.67l-34.22-58.44c-6.54-11.34-12.49-23.26-17.3-34.79.39,12.49.57,24.41.57,31.33v61.9h-25.37v-104.6c0-11.24,9.11-20.34,20.34-20.34h15.02l34.6,60.55c7.5,13.07,13.84,26.15,19.03,37.87-.39-14.61-.77-28.65-.77-35.95v-62.47h25.38v124.94h-37.29Z"/>
  </g>
  <g>
    <path class="uuid-13eb971a-15e6-4bae-98fe-b91685fbef87" d="m1170.79,370.71h42.91v37.49l-42.91,31.47v-68.96Z"/>
    <path class="uuid-13eb971a-15e6-4bae-98fe-b91685fbef87" d="m2,370.71h47.66l30.51,161.44h2.22l33.06-161.44h56.88l35.92,161.44h1.9l26.81-138.95c2.52-13.06,13.95-22.49,27.24-22.49h23.81l-47.03,206.57h-61.02l-34.33-153.49h-2.22l-32.73,153.49h-60.69L2,370.71Z"/>
    <path class="uuid-13eb971a-15e6-4bae-98fe-b91685fbef87" d="m300.48,540.41v-136.96c0-22.89,13.03-32.73,33.05-32.73h113.78c24.79,0,32.41,15.57,32.41,41.3v126.17c0,20.66-13.66,39.09-38.77,39.09h-102.65c-20.66,0-37.82-11.12-37.82-36.87Zm133.47-4.12v-124.27h-87.7v124.27h87.7Z"/>
    <path class="uuid-13eb971a-15e6-4bae-98fe-b91685fbef87" d="m702.85,475.27c0-9.54.96-27.02,1.91-45.76-6.03,19.38-11.76,37.49-15.25,47.99l-35.59,99.78h-52.43l-35.59-99.78c-3.5-10.49-9.53-29.56-15.89-50.21,1.27,18.74,2.22,36.86,2.22,47.35v102.65h-43.21v-206.57h61.33l56.57,159.22h2.54l54.98-159.22h61.34v206.57h-42.91v-102.01Z"/>
    <path class="uuid-13eb971a-15e6-4bae-98fe-b91685fbef87" d="m775.69,370.71h127.49c15.07,0,27.28,12.21,27.28,27.28v11.48h-108.05v44.49h77.22v38.14h-77.22v46.4h108.05v38.77h-154.77v-206.57Z"/>
    <path class="uuid-13eb971a-15e6-4bae-98fe-b91685fbef87" d="m1081.44,577.28l-56.57-96.61c-10.81-18.75-20.65-38.45-28.6-57.52.64,20.65.95,40.35.95,51.8v102.33h-41.94v-206.57h58.47l57.21,100.1c12.39,21.61,22.88,43.23,31.46,62.62-.64-24.16-1.27-47.36-1.27-59.43v-103.28h41.95v206.57h-61.65Z"/>
    <path class="uuid-13eb971a-15e6-4bae-98fe-b91685fbef87" d="m1412.34,538.82c0,23.2-13.66,38.45-38.77,38.45h-96.92c-20.34,0-37.5-11.12-37.5-36.87v-34.63h45.76v32.41h81.67v-33.37l-105.82-30.51c-16.53-5.08-21.61-13.98-21.61-32.41v-39.09c0-22.89,13.03-32.1,34.32-32.1h102.97c28.6,0,35.91,14.93,35.91,41.3v26.7h-45.76v-29.23h-81.67v29.87l106.47,30.51c16.84,5.08,20.96,13.34,20.96,34.01v34.96Z"/>
  </g>
  <polygon class="uuid-13eb971a-15e6-4bae-98fe-b91685fbef87" points="2228.56 430.01 2228.56 364.93 2126.31 364.93 1899.67 508.85 1899.66 508.86 1698.18 380.91 1673.07 364.97 1570.83 364.97 1570.83 430.06 1797.41 573.95 1570.86 717.86 1570.86 782.86 1673.25 782.86 1899.67 639.02 1899.73 638.99 2041.83 729.29 2126.2 782.86 2228.56 782.86 2228.56 717.88 2211.8 707.22 2001.95 573.98 2001.9 573.95 2001.92 573.94 2228.56 430.01"/>
  <path class="uuid-13eb971a-15e6-4bae-98fe-b91685fbef87" d="m2235.04,789.32h-670.69v-430.86h670.69v430.86Zm-657.76-12.92h644.84v-405.01h-644.84v405.01Z"/>
  <g>
    <path class="uuid-13eb971a-15e6-4bae-98fe-b91685fbef87" d="m1426.04,6.87c2.09,0,3.88,0,5.67,0,19.37,0,38.74.14,58.11-.11,4.49-.06,7.08,1.24,9.51,5.13,36.63,58.73,73.43,117.34,110.2,175.98,1.04,1.66,2.15,3.29,4.27,4.74V7.19h58.52c.09,1.9.26,3.69.26,5.48.01,85.23-.02,170.46.11,255.69,0,4.63-.99,6.33-5.99,6.24-18.2-.3-36.4-.23-54.6-.03-3.95.04-6.23-1.21-8.38-4.53-38.54-59.49-77.22-118.9-115.88-178.32-.71-1.1-1.5-2.14-3.13-4.46v186.85h-58.68V6.87Z"/>
    <path class="uuid-13eb971a-15e6-4bae-98fe-b91685fbef87" d="m1721.59,274.1V7.15c1.33-.11,2.45-.27,3.57-.27,47.25.02,94.49-.24,141.73.17,46.48.4,81.43,27.24,94.69,71.67,8.55,28.64,9.85,57.81,7.08,87.35-1.53,16.3-4.75,32.19-11.02,47.35-16.4,39.64-46.02,60.56-89.17,60.96-47.58.44-95.16.11-142.74.09-1.29,0-2.58-.23-4.14-.37Zm60.76-216.53v166.15c2.12,0,3.92,0,5.72,0,20.87,0,41.73,0,62.6,0,23.6,0,40.71-10.7,48.71-32.71,11.29-31.04,11.79-62.88,2.41-94.5-6.21-20.93-20.74-33.95-42.5-37.44-9.96-1.6-20.27-1.3-30.42-1.44-15.33-.21-30.67-.06-46.51-.06Z"/>
    <path class="uuid-13eb971a-15e6-4bae-98fe-b91685fbef87" d="m1042.79,7.08h59.69v267h-59.59v-115.4h-126.17v115.3h-59.95V7.17h59.71v6.07c0,29.46.11,58.93-.11,88.39-.04,4.92,1.53,6.06,6.24,6.04,37.9-.18,75.81-.1,113.71-.1,6.45,0,6.46-.02,6.46-6.7,0-29.13,0-58.26,0-87.4,0-1.96,0-3.93,0-6.39Z"/>
    <path class="uuid-13eb971a-15e6-4bae-98fe-b91685fbef87" d="m1398.69,274.49c-7.2,0-13.68,0-20.16,0-13.36,0-26.71-.13-40.07.09-3.67.06-5.13-1.22-6.2-4.64-4.82-15.36-10.07-30.59-14.9-45.95-1.07-3.4-2.5-4.71-6.23-4.69-31.22.15-62.44.15-93.66,0-3.55-.02-4.91,1.26-5.91,4.44-4.92,15.51-10.09,30.94-15.13,46.41-.73,2.24-1.08,4.4-4.36,4.38-20.35-.1-40.71-.05-61.97-.05,2.6-7.29,4.96-14.05,7.43-20.78,26.89-73.4,53.8-146.8,80.7-220.2,2.8-7.64,5.63-15.27,8.3-22.96.86-2.46,1.89-3.76,4.88-3.74,22.04.14,44.07.19,66.11-.03,4.21-.04,4.39,2.86,5.29,5.29,14.18,38.64,28.28,77.32,42.41,115.98,17.15,46.92,34.33,93.83,51.49,140.75.61,1.67,1.17,3.36,1.98,5.7Zm-99.19-103.95c-11.58-35.09-23.03-69.77-34.48-104.46-.45.03-.9.07-1.35.1-11.39,34.65-22.78,69.31-34.31,104.35h70.14Z"/>
    <path class="uuid-13eb971a-15e6-4bae-98fe-b91685fbef87" d="m1978.65,274.46c7.12-19.41,13.92-37.93,20.71-56.46,25.16-68.75,50.35-137.49,75.37-206.29,1.37-3.78,3.03-4.99,7.04-4.95,20.86.22,41.73.24,62.6-.02,4.07-.05,5.78,1.3,7.1,4.91,22.45,61.78,45.01,123.52,67.55,185.26,8.99,24.63,18.03,49.24,27.04,73.87.33.91.61,1.83,1.08,3.24-1.77.17-3.18.43-4.58.43-18.53.03-37.06-.07-55.59.1-3.45.03-4.86-1.09-5.89-4.33-4.91-15.51-10.22-30.9-15.09-46.43-1.12-3.56-2.85-4.52-6.39-4.51-31.05.12-62.1.13-93.15,0-3.6-.02-5.16,1.03-6.27,4.58-4.9,15.68-10.13,31.27-15.43,46.82-.51,1.5-2.41,3.59-3.68,3.6-20.51.23-41.03.16-62.41.16Zm169.49-103.91c-11.56-35.09-22.99-69.76-34.41-104.43-.45,0-.9.02-1.35.03-11.42,34.67-22.83,69.33-34.38,104.4h70.14Z"/>
    <path class="uuid-a04a9d6a-64cf-488a-a1f4-dfab5f55b8ed" d="m390.27,171.23v103.91c-1.77.21-3.19.51-4.62.52-16.69.03-33.39-.07-50.08.1-3.69.04-4.83-1-4.83-4.79.1-86.38.08-172.75.09-259.13,0-1.13.12-2.27.2-3.68,1.17-.14,2.12-.36,3.07-.36,36.39.02,72.79-.26,109.17.22,17.61.23,34.85,3.51,50.87,11.36,20.04,9.82,32.3,25.71,36.71,47.53,3.41,16.88,3.25,33.78-1.31,50.39-7.5,27.34-26.77,42.72-53.46,48.9-12.89,2.99-26.32,4.15-39.58,4.86-15.12.81-30.31.19-46.22.19Zm.24-50.18c15.07,0,29.57.53,44.01-.23,7.14-.38,14.56-2.2,21.15-5.01,11.54-4.91,16.07-15.04,16.02-27.05-.05-11.84-5.41-20.89-16.58-25.55-5.16-2.15-10.77-4.11-16.27-4.42-15.63-.87-31.3-.84-46.96-1.14-.43,0-.88.37-1.37.59v62.8Z"/>
    <path class="uuid-a04a9d6a-64cf-488a-a1f4-dfab5f55b8ed" d="m92.73,248.77c13.98-15.33,27.77-30.44,41.34-45.33,5.99,4.93,11.39,10.4,17.73,14.39,17.32,10.92,36,13.42,55.5,6.52,4-1.41,7.89-3.71,11.21-6.36,12.07-9.66,12.17-26.24.46-36.43-9.04-7.87-20.29-11.22-31.27-15.12-15.05-5.35-30.45-9.93-45.05-16.31-19.62-8.56-34.44-22.41-39.3-44.19-8.33-37.31,7.09-73.31,41.41-90.49,46.06-23.06,91.68-20.27,135.2,8.08,1.81,1.18,3.4,2.68,5.06,4.07.36.3.58.76,1.11,1.48-13.35,14.55-26.69,29.1-39.9,43.51-18.65-16.79-39.65-21.31-63-13.91-13.84,4.38-20.57,13.52-20.16,25.77.34,10.39,6.56,17.03,15.25,21.09,8.7,4.06,17.92,7.09,27.01,10.27,12.72,4.46,25.91,7.78,38.23,13.13,31.65,13.74,45.2,36.97,43.02,71.34-2.23,35.27-19.64,60.64-52.6,72.62-50.22,18.26-97.68,12.79-139.74-22.55-.37-.31-.68-.71-1.5-1.58Z"/>
    <path class="uuid-a04a9d6a-64cf-488a-a1f4-dfab5f55b8ed" d="m550.47,248.68c13.96-15.3,27.74-30.41,41.84-45.87,7.78,9.24,16.81,16.41,27.91,20.64,16.1,6.14,32.23,6.65,48.16-.51,9.19-4.13,15.9-10.63,16.74-21.24.87-11.02-4.49-19.55-13.95-23.98-13.35-6.25-27.52-10.78-41.26-16.23-12.51-4.97-25.5-9.14-37.27-15.52-27.32-14.8-36.18-38.66-33.07-67.56,3.69-34.24,23.31-56.91,54.8-68.7,40.89-15.31,80.83-12.2,118.6,10.6,3.8,2.29,7.18,5.28,11.21,8.28-13.76,15-27.08,29.54-40.54,44.23-13.74-13.99-30.52-18.91-49.08-17.03-7.41.75-15.17,3.18-21.65,6.83-16.52,9.29-16.98,30.68-.77,40.46,8.43,5.08,18.13,8.17,27.45,11.66,16.19,6.06,33.12,10.48,48.66,17.86,24.84,11.79,35.84,32.92,36.07,60.17.23,27.41-8.59,50.57-30.59,67.86-15.08,11.85-32.66,17.96-51.42,20.41-26.74,3.49-52.91,1.32-77.97-9.6-11.36-4.95-26.12-14.58-33.88-22.77Z"/>
    <path class="uuid-a04a9d6a-64cf-488a-a1f4-dfab5f55b8ed" d="m58.46,275.39H0V8.08h58.46v267.31Z"/>
  </g>
</svg>